<?xml version="1.0" encoding="UTF-8" standalone="no"?>
<!-- Created with Inkscape (http://www.inkscape.org/) -->

<svg
   xmlns:dc="http://purl.org/dc/elements/1.1/"
   xmlns:cc="http://creativecommons.org/ns#"
   xmlns:rdf="http://www.w3.org/1999/02/22-rdf-syntax-ns#"
   xmlns:svg="http://www.w3.org/2000/svg"
   xmlns="http://www.w3.org/2000/svg"
   xmlns:sodipodi="http://sodipodi.sourceforge.net/DTD/sodipodi-0.dtd"
   xmlns:inkscape="http://www.inkscape.org/namespaces/inkscape"
   width="32"
   height="32"
   viewBox="0 0 8.4666665 8.4666669"
   version="1.1"
   id="svg8"
   inkscape:version="0.92.2 2405546, 2018-03-11"
   sodipodi:docname="ctb.svg">
  <defs
     id="defs2" />
  <sodipodi:namedview
     id="base"
     pagecolor="#000000"
     bordercolor="#666666"
     borderopacity="1.0"
     inkscape:pageopacity="0"
     inkscape:pageshadow="2"
     inkscape:zoom="22.4"
     inkscape:cx="13.374861"
     inkscape:cy="15.388171"
     inkscape:document-units="mm"
     inkscape:current-layer="layer1"
     showgrid="true"
     units="px"
     inkscape:window-width="1920"
     inkscape:window-height="1035"
     inkscape:window-x="0"
     inkscape:window-y="22"
     inkscape:window-maximized="0">
    <inkscape:grid
       type="xygrid"
       id="grid3713"
       empspacing="8" />
  </sodipodi:namedview>
  <metadata
     id="metadata5">
    <rdf:RDF>
      <cc:Work
         rdf:about="">
        <dc:format>image/svg+xml</dc:format>
        <dc:type
           rdf:resource="http://purl.org/dc/dcmitype/StillImage" />
        <dc:title></dc:title>
      </cc:Work>
    </rdf:RDF>
  </metadata>
  <g
     inkscape:label="Layer 1"
     inkscape:groupmode="layer"
     id="layer1"
     transform="translate(0,-288.53332)">
    <path
       style="opacity:1;fill:#ffffff;stroke:none;stroke-width:0.99999994"
       d="M 16 0 A 15.999999 15.999999 0 0 0 0 16 A 15.999999 15.999999 0 0 0 16 32 A 15.999999 15.999999 0 0 0 32 16 A 15.999999 15.999999 0 0 0 16 0 z M 16 3 A 13 13 0 0 1 29 16 A 13 13 0 0 1 16 29 A 13 13 0 0 1 3 16 A 13 13 0 0 1 16 3 z "
       transform="matrix(0.26458333,0,0,0.26458333,0,288.53332)"
       id="path3728" />
    <circle
       style="opacity:1;fill:#ffffff;stroke:none;stroke-width:0.26458332"
       id="path4622"
       cx="3.7136159"
       cy="291.40594"
       r="0.66145831" />
    <circle
       style="opacity:1;fill:#ffffff;stroke:none;stroke-width:0.26458332"
       id="path4622-5"
       cx="5.2774925"
       cy="292.77609"
       r="0.66145831" />
    <circle
       style="opacity:1;fill:#ffffff;stroke:none;stroke-width:0.26458332"
       id="path4622-3"
       cx="3.7018042"
       cy="294.09903"
       r="0.66145831" />
  </g>
</svg>
